# xmcd CD database file
#
# Track frame offsets:
#	150
#	27319
#	52011
#	84104
#	106513
#	135214
#	168180
#
# Disc length: 2529 seconds
#
# Revision: 0
# Processed by: cddbd v1.5.2PL0 Copyright (c) Steve Scherf et al.
# Submitted via: CDex 1.82
#
DISCID=4209df07
DTITLE=Jean-Marc Padovani Septet - Sketches
DYEAR=2011
DGENRE=Jazz
TTITLE0=Jean-Marc Padovani Septet - Seventeen West
TTITLE1=Jean-Marc Padovani Septet - Stolen Moments
TTITLE2=Jean-Marc Padovani Septet - Eric Sketches
TTITLE3=Jean-Marc Padovani Septet - Si pres, si loin
TTITLE4=Jean-Marc Padovani Septet - Cascade
TTITLE5=Jean-Marc Padovani Septet - Complete Ornette
TTITLE6=Jean-Marc Padovani Septet - Oliver s Dream
EXTD=YEAR: 2011
EXTT0=
EXTT1=
EXTT2=
EXTT3=
EXTT4=
EXTT5=
EXTT6=
PLAYORDER=
